<?xml version="1.0" encoding="UTF-8"?><svg id="a" xmlns="http://www.w3.org/2000/svg" xmlns:xlink="http://www.w3.org/1999/xlink" viewBox="0 0 50 50"><defs><style>.p{fill:url(#e);}.q{fill:url(#d);}.r{fill:url(#g);}.s{fill:url(#f);}.t{fill:url(#o);}.u{fill:url(#i);}.v{fill:url(#h);}.w{fill:url(#k);}.x{fill:url(#j);}.y{fill:url(#m);}.a`{fill:url(#l);}.aa{fill:url(#n);}.ab{fill:url(#c);}.ac{fill:url(#b);}.ad{fill:#02ffae;}.ae{fill:#d00cfe;}</style><linearGradient id="b" x1="13.54" y1="22.36" x2="13.54" y2="24.33" gradientTransform="matrix(1, 0, 0, 1, 0, 0)" gradientUnits="userSpaceOnUse"><stop offset="0" stop-color="#ff01fb"/><stop offset="1" stop-color="#b000ff"/></linearGradient><linearGradient id="c" y1="26.18" y2="28.15" xlink:href="#b"/><linearGradient id="d" x1="13.54" y1="36.47" x2="13.54" y2="34.5" gradientTransform="matrix(1, 0, 0, 1, 0, 0)" gradientUnits="userSpaceOnUse"><stop offset="0" stop-color="#ff01fb"/><stop offset="1" stop-color="#02ffae"/></linearGradient><linearGradient id="e" x1="34.71" y1="37.49" x2="34.71" y2="35.52" xlink:href="#d"/><linearGradient id="f" x1="28.22" y1="27.18" x2="34.86" y2="33.81" xlink:href="#d"/><linearGradient id="g" x1="34.66" y1="27.67" x2="34.66" y2="23.82" gradientTransform="matrix(1, 0, 0, 1, 0, 0)" gradientUnits="userSpaceOnUse"><stop offset="0" stop-color="#b000ff"/><stop offset="1" stop-color="#ff01fb"/></linearGradient><linearGradient id="h" x1="14.54" y1="9.14" x2="22.27" y2="9.14" gradientTransform="translate(-1.07 15.69) rotate(-45)" xlink:href="#d"/><linearGradient id="i" x1="23.18" y1="9.14" x2="30.91" y2="9.14" gradientTransform="translate(1.46 21.81) rotate(-45)" xlink:href="#d"/><linearGradient id="j" x1="34.42" y1="12.58" x2="34.42" y2="6.73" xlink:href="#g"/><linearGradient id="k" x1="29.86" y1="16.54" x2="29.86" y2="14.29" gradientTransform="matrix(1, 0, 0, 1, 0, 0)" gradientUnits="userSpaceOnUse"><stop offset="0" stop-color="#b000ff"/><stop offset=".34" stop-color="#b401fe"/><stop offset=".74" stop-color="#c207fe"/><stop offset="1" stop-color="#d00cfe"/></linearGradient><linearGradient id="l" x1="15.35" y1="20.77" x2="15.35" xlink:href="#k"/><linearGradient id="m" x1="16.31" y1="24.08" x2="23.88" y2="24.08" xlink:href="#d"/><linearGradient id="n" x1="17.19" y1="35.76" x2="26.03" y2="35.76" gradientTransform="matrix(1, 0, 0, 1, 0, 0)" gradientUnits="userSpaceOnUse"><stop offset="0" stop-color="#ff01fb"/><stop offset="1" stop-color="#8f00f0"/></linearGradient><linearGradient id="o" x1="26.03" y1="37.59" x2="30.67" y2="37.59" xlink:href="#d"/></defs><rect class="ae" x="13.51" y="14.29" width="21.16" height="6.48"/><polygon class="ae" points="16.31 20.77 16.31 39.52 26.03 44.13 26.03 39.52 26.03 20.77 16.31 20.77"/><circle class="ac" cx="13.54" cy="23.35" r=".99"/><circle class="ad" cx="36.46" cy="5.78" r=".99"/><circle class="ab" cx="13.54" cy="27.16" r=".99"/><circle class="ad" cx="22.25" cy="5.3" r=".99"/><circle class="q" cx="13.54" cy="35.49" r=".99"/><circle class="p" cx="34.71" cy="36.5" r=".99"/><circle class="ad" cx="34.71" cy="42.54" r=".99"/><polygon class="ae" points="26.03 33.84 26.03 44.13 29.15 45.69 30.67 43.46 30.67 37.2 26.03 33.84"/><path class="s" d="M34.49,30.82v2.25c0,.26-.15,.5-.38,.61l-.61,.31c-.47,.23-1.04,.14-1.4-.24l-5.36-5.56,2.41-2.77,5.34,5.4Z"/><polygon class="r" points="32.63 23.82 36.68 23.82 34.68 27.67 32.63 23.82"/><rect class="v" x="15.67" y="6.41" width="5.47" height="5.47" transform="translate(11.86 -10.34) rotate(45)"/><rect class="u" x="24.32" y="6.41" width="5.47" height="5.47" transform="translate(14.39 -16.45) rotate(45)"/><rect class="x" x="33.4" y="6.73" width="2.03" height="5.85" rx=".92" ry=".92"/><polygon class="w" points="27.62 14.29 32.09 14.29 29.85 16.54 27.62 14.29"/><path class="a`" d="M13.51,14.29h3.67l-.88,3.5c-.57,1.72-1.65,2.99-2.28,2.99h-.52v-6.48Z"/><polygon class="y" points="16.31 20.77 23.88 20.77 18.98 27.38 16.31 24.69 16.31 20.77"/><polygon class="aa" points="26.03 44.13 17.19 39.94 26.03 27.38 26.03 44.13"/><polygon class="t" points="26.03 33.84 26.03 36.47 30.67 41.34 30.67 37.2 26.03 33.84"/></svg>