<?xml version="1.0" encoding="utf-8"?>
<!-- Generator: Adobe Illustrator 26.2.1, SVG Export Plug-In . SVG Version: 6.00 Build 0)  -->
<svg version="1.1" xmlns="http://www.w3.org/2000/svg" xmlns:xlink="http://www.w3.org/1999/xlink" x="0px" y="0px"
	 viewBox="0 0 300 300" enable-background="new 0 0 300 300" xml:space="preserve">
<g id="Layer_1">
</g>
<g id="Layer_2">
	<g>
		<g>
			<radialGradient id="SVGID_1_" cx="237.8538" cy="100.8181" r="5.9761" gradientUnits="userSpaceOnUse">
				<stop  offset="0" style="stop-color:#FF01FB"/>
				<stop  offset="1" style="stop-color:#B000FF"/>
			</radialGradient>
			<circle fill="url(#SVGID_1_)" cx="237.9" cy="100.8" r="6"/>
			
				<radialGradient id="SVGID_00000036216164623309796240000009362070791033163143_" cx="150" cy="150" r="104.474" gradientUnits="userSpaceOnUse">
				<stop  offset="0" style="stop-color:#FF01FB"/>
				<stop  offset="1" style="stop-color:#B000FF"/>
			</radialGradient>
			<path fill="url(#SVGID_00000036216164623309796240000009362070791033163143_)" d="M255.9,228.6l-23.7-23.7
				c5.7-2.7,9.7-8.6,9.7-15.3c0-9.4-7.6-17-17-17c-1.3,0-2.6,0.2-3.8,0.4l28.5-28.5l-16.9-16.9l0,0l-48.1-48.1h0l-20.6-20.6l0,0
				l-11.9-11.9L122,76.8l21.7,21.7H44.7v101.9c-0.4,2.3-0.6,4.7-0.6,7.1s0.2,4.8,0.6,7.1v38.1h99.2v-0.2h64.4v-22.6l23.1,23.1
				L255.9,228.6z M143.9,98.7l73.4,73.4l0,0l1.6,1.6c-5.4,2-9.4,6.7-10.6,12.4v-22.9h-64.4V98.7z M208.2,193.1
				c1.6,7.7,8.4,13.5,16.6,13.5c2.2,0,4.3-0.4,6.2-1.2l-22.8,22.8V193.1z"/>
		</g>
		<g>
			<g>
				
					<rect x="116.8" y="89.5" transform="matrix(-0.7071 -0.7071 0.7071 -0.7071 238.8997 320.3243)" fill="#D00CFE" width="138" height="42.3"/>
				
					<linearGradient id="SVGID_00000030479302274067333590000018304907089062521279_" gradientUnits="userSpaceOnUse" x1="157.0012" y1="102.9223" x2="127.8589" y2="102.9223" gradientTransform="matrix(-0.7071 -0.7071 -0.7071 0.7071 342.484 102.2779)">
					<stop  offset="0" style="stop-color:#FF01FB"/>
					<stop  offset="1" style="stop-color:#02FFAE"/>
				</linearGradient>
				<polygon fill="url(#SVGID_00000030479302274067333590000018304907089062521279_)" points="184.5,79.5 163.9,58.9 163.9,79.6 
									"/>
				
					<linearGradient id="SVGID_00000003081453893727824740000011406330146366434996_" gradientUnits="userSpaceOnUse" x1="47.8243" y1="137.8823" x2="47.8243" y2="95.6035" gradientTransform="matrix(-0.7071 -0.7071 -0.7071 0.7071 342.484 102.2779)">
					<stop  offset="0" style="stop-color:#B000FF"/>
					<stop  offset="0.3432" style="stop-color:#B502FF"/>
					<stop  offset="0.7426" style="stop-color:#C307FE"/>
					<stop  offset="0.9994" style="stop-color:#D00CFE"/>
				</linearGradient>
				<path fill="url(#SVGID_00000003081453893727824740000011406330146366434996_)" d="M249.5,144.5l-16.9-16.9l-12.1,20.2
					c-5.3,10.6-6.2,21.4-3.3,24.3l2.4,2.4L249.5,144.5z"/>
			</g>
			
				<linearGradient id="SVGID_00000093169801809400713700000002058982149919432096_" gradientUnits="userSpaceOnUse" x1="51.6105" y1="106.7942" x2="51.6105" y2="94.842" gradientTransform="matrix(-1 0 0 1 289.4643 0)">
				<stop  offset="0" style="stop-color:#FF01FB"/>
				<stop  offset="1" style="stop-color:#02FFAE"/>
			</linearGradient>
			<circle fill="url(#SVGID_00000093169801809400713700000002058982149919432096_)" cx="237.9" cy="100.8" r="6"/>
			
				<linearGradient id="SVGID_00000093893991901037644520000016696895059534549688_" gradientUnits="userSpaceOnUse" x1="33.2685" y1="229.4893" x2="80.1604" y2="229.4893" gradientTransform="matrix(-1.0343 1.066284e-02 -1.066284e-02 1.0343 292.722 -9.1508)">
				<stop  offset="0" style="stop-color:#FF01FB"/>
				<stop  offset="1" style="stop-color:#02FFAE"/>
			</linearGradient>
			<polygon fill="url(#SVGID_00000093893991901037644520000016696895059534549688_)" points="207.4,229.1 231.9,204.6 255.9,228.6 
				231.4,253.1 			"/>
			
				<linearGradient id="SVGID_00000018956399472160608480000013175920744071797642_" gradientUnits="userSpaceOnUse" x1="64.5988" y1="206.5637" x2="64.5988" y2="172.5637" gradientTransform="matrix(-1 0 0 1 289.4643 0)">
				<stop  offset="0" style="stop-color:#FF01FB"/>
				<stop  offset="1" style="stop-color:#02FFAE"/>
			</linearGradient>
			<circle fill="url(#SVGID_00000018956399472160608480000013175920744071797642_)" cx="224.9" cy="189.6" r="17"/>
			
				<linearGradient id="SVGID_00000127754649626804673710000009790967755202544534_" gradientUnits="userSpaceOnUse" x1="8892.0127" y1="201.6911" x2="9018.0488" y2="201.6911" gradientTransform="matrix(0.7071 0.7071 -0.7071 0.7071 -6025.7378 -6266.9106)">
				<stop  offset="0" style="stop-color:#FF01FB"/>
				<stop  offset="1" style="stop-color:#02FFAE"/>
			</linearGradient>
			<polygon fill="url(#SVGID_00000127754649626804673710000009790967755202544534_)" points="208.2,252.6 208.2,163.2 119.4,163.2 
				119.4,252.6 			"/>
			
				<linearGradient id="SVGID_00000138570590702780958580000016528697557495134354_" gradientUnits="userSpaceOnUse" x1="1113.8383" y1="2058.4146" x2="1292.9736" y2="2058.4146" gradientTransform="matrix(-0.7071 0.7071 0.7071 0.7071 -510.3037 -2130.8108)">
				<stop  offset="0" style="stop-color:#FF01FB"/>
				<stop  offset="1" style="stop-color:#02FFAE"/>
			</linearGradient>
			<polygon fill="url(#SVGID_00000138570590702780958580000016528697557495134354_)" points="44.7,252.7 44.7,98.6 143.9,98.6 
				143.9,252.7 			"/>
			<g>
				<polygon fill="#D00CFE" points="84.7,252.6 84.7,129.2 143.7,98.8 143.7,129.2 143.7,252.6 				"/>
				
					<linearGradient id="SVGID_00000135659402855617578010000010536007164455351719_" gradientUnits="userSpaceOnUse" x1="95.514" y1="107.4503" x2="141.4666" y2="107.4503" gradientTransform="matrix(1 0 0 -1 -10.8221 338.2656)">
					<stop  offset="0" style="stop-color:#FF01FB"/>
					<stop  offset="1" style="stop-color:#02FFAE"/>
				</linearGradient>
				<polygon fill="url(#SVGID_00000135659402855617578010000010536007164455351719_)" points="84.7,252.6 130.6,252.6 100.9,209.1 
					84.7,226.8 				"/>
				
					<linearGradient id="SVGID_00000042727381836068081730000002796066200617682068_" gradientUnits="userSpaceOnUse" x1="100.8438" y1="184.3109" x2="154.5036" y2="184.3109" gradientTransform="matrix(1 0 0 -1 -10.8221 338.2656)">
					<stop  offset="0" style="stop-color:#FF01FB"/>
					<stop  offset="1" style="stop-color:#8F00F0"/>
				</linearGradient>
				<polygon fill="url(#SVGID_00000042727381836068081730000002796066200617682068_)" points="143.7,98.8 90,126.4 143.7,209.1 				
					"/>
			</g>
			
				<radialGradient id="SVGID_00000022548274822841917540000016821017285682499459_" cx="200.1952" cy="207.0474" r="45.4775" gradientTransform="matrix(-0.9865 0 0 0.989 286.5013 2.7701)" gradientUnits="userSpaceOnUse">
				<stop  offset="0" style="stop-color:#FF01FB"/>
				<stop  offset="1" style="stop-color:#B000FF"/>
			</radialGradient>
			<ellipse fill="url(#SVGID_00000022548274822841917540000016821017285682499459_)" cx="89" cy="207.5" rx="44.9" ry="45"/>
		</g>
	</g>
</g>
</svg>
