<?xml version="1.0" encoding="utf-8"?>
<!-- Generator: Adobe Illustrator 26.2.1, SVG Export Plug-In . SVG Version: 6.00 Build 0)  -->
<svg version="1.1" xmlns="http://www.w3.org/2000/svg" xmlns:xlink="http://www.w3.org/1999/xlink" x="0px" y="0px"
	 viewBox="0 0 300 300" enable-background="new 0 0 300 300" xml:space="preserve">
<g id="Layer_1">
</g>
<g id="Layer_2">
	<g>
		<g>
			<radialGradient id="SVGID_1_" cx="150" cy="202" r="102.6589" gradientUnits="userSpaceOnUse">
				<stop  offset="0" style="stop-color:#FF01FB"/>
				<stop  offset="1" style="stop-color:#B000FF"/>
			</radialGradient>
			<path fill="url(#SVGID_1_)" d="M256.1,206.6L256.1,206.6L208,158.5h0l-20.6-20.6l0,0l-11.9-11.9l-0.2,0.2v-1.2H76v0.2L27,174.2
				l48.2,48.2l0.8-0.8v57.5h99.2v-1.8c3.8,1,7.9,1.6,12.1,1.6c22.1,0,40.5-15.6,45-36.3l8.4,8.4l0,0l2.4,2.4l29.9-29.9L256.1,206.6z
				 M175.2,188.4v-2.9l2.3,2.3C176.8,188,176,188.2,175.2,188.4z"/>
			
				<radialGradient id="SVGID_00000137854838365745406920000007242314520589695620_" cx="125.3556" cy="65.8964" r="44.9215" gradientUnits="userSpaceOnUse">
				<stop  offset="0" style="stop-color:#FF01FB"/>
				<stop  offset="1" style="stop-color:#B000FF"/>
			</radialGradient>
			<ellipse fill="url(#SVGID_00000137854838365745406920000007242314520589695620_)" cx="125.4" cy="65.9" rx="44.9" ry="45"/>
		</g>
		<g>
			<g>
				
					<rect x="140.3" y="168.5" transform="matrix(-0.7071 -0.7071 0.7071 -0.7071 223.1449 471.7798)" fill="#D00CFE" width="138" height="42.3"/>
				
					<linearGradient id="SVGID_00000124861744995039438350000000816014007254175909_" gradientUnits="userSpaceOnUse" x1="84.5364" y1="142.1671" x2="55.394" y2="142.1671" gradientTransform="matrix(-0.7071 -0.7071 -0.7071 0.7071 342.484 102.2779)">
					<stop  offset="0" style="stop-color:#FF01FB"/>
					<stop  offset="1" style="stop-color:#02FFAE"/>
				</linearGradient>
				<polygon fill="url(#SVGID_00000124861744995039438350000000816014007254175909_)" points="208,158.5 187.4,137.9 187.4,158.6 
									"/>
				
					<linearGradient id="SVGID_00000083784188097374728440000002665373695918456510_" gradientUnits="userSpaceOnUse" x1="-24.6406" y1="177.1271" x2="-24.6406" y2="134.8483" gradientTransform="matrix(-0.7071 -0.7071 -0.7071 0.7071 342.484 102.2779)">
					<stop  offset="0" style="stop-color:#B000FF"/>
					<stop  offset="0.3432" style="stop-color:#B502FF"/>
					<stop  offset="0.7426" style="stop-color:#C307FE"/>
					<stop  offset="0.9994" style="stop-color:#D00CFE"/>
				</linearGradient>
				<path fill="url(#SVGID_00000083784188097374728440000002665373695918456510_)" d="M273,223.5l-16.9-16.9L244,226.8
					c-5.3,10.6-6.2,21.4-3.3,24.3l2.4,2.4L273,223.5z"/>
			</g>
			
				<linearGradient id="SVGID_00000044877065200985705620000010655168179598477187_" gradientUnits="userSpaceOnUse" x1="160.8763" y1="174.6113" x2="255.1394" y2="174.6113" gradientTransform="matrix(-1.0343 1.066284e-02 -1.066284e-02 1.0343 292.722 -9.1508)">
				<stop  offset="0" style="stop-color:#FF01FB"/>
				<stop  offset="1" style="stop-color:#02FFAE"/>
			</linearGradient>
			<polygon fill="url(#SVGID_00000044877065200985705620000010655168179598477187_)" points="27,174.2 76.2,124.9 124.5,173.2 
				75.2,222.4 			"/>
			
				<linearGradient id="SVGID_00000132047251818609730500000001442681447508701879_" gradientUnits="userSpaceOnUse" x1="102.1759" y1="278.9189" x2="102.1759" y2="186.7845" gradientTransform="matrix(-1 0 0 1 289.4643 0)">
				<stop  offset="0" style="stop-color:#FF01FB"/>
				<stop  offset="1" style="stop-color:#02FFAE"/>
			</linearGradient>
			<circle fill="url(#SVGID_00000132047251818609730500000001442681447508701879_)" cx="187.3" cy="232.9" r="46.1"/>
			
				<linearGradient id="SVGID_00000014605356277539215440000001822043772346487455_" gradientUnits="userSpaceOnUse" x1="1110.3024" y1="2099.2224" x2="1289.4379" y2="2099.2224" gradientTransform="matrix(-0.7071 0.7071 0.7071 0.7071 -510.3037 -2130.8108)">
				<stop  offset="0" style="stop-color:#FF01FB"/>
				<stop  offset="1" style="stop-color:#02FFAE"/>
			</linearGradient>
			<polygon fill="url(#SVGID_00000014605356277539215440000001822043772346487455_)" points="76,279.1 76,124.9 175.2,124.9 
				175.2,279.1 			"/>
			<g>
				<polygon fill="#D00CFE" points="116,278.9 116,155.5 175,125.2 175,155.5 175,278.9 				"/>
				
					<linearGradient id="SVGID_00000113327704016194354280000008220065352297897375_" gradientUnits="userSpaceOnUse" x1="126.8696" y1="81.0951" x2="172.8222" y2="81.0951" gradientTransform="matrix(1 0 0 -1 -10.8221 338.2656)">
					<stop  offset="0" style="stop-color:#FF01FB"/>
					<stop  offset="1" style="stop-color:#02FFAE"/>
				</linearGradient>
				<polygon fill="url(#SVGID_00000113327704016194354280000008220065352297897375_)" points="116,278.9 162,278.9 132.2,235.4 
					116,253.1 				"/>
				
					<linearGradient id="SVGID_00000036210711647127086470000013994550484136682174_" gradientUnits="userSpaceOnUse" x1="132.1995" y1="157.9557" x2="185.8592" y2="157.9557" gradientTransform="matrix(1 0 0 -1 -10.8221 338.2656)">
					<stop  offset="0" style="stop-color:#FF01FB"/>
					<stop  offset="1" style="stop-color:#8F00F0"/>
				</linearGradient>
				<polygon fill="url(#SVGID_00000036210711647127086470000013994550484136682174_)" points="175,125.2 121.4,152.8 175,235.4 				
					"/>
			</g>
			
				<radialGradient id="SVGID_00000145038507373527780600000017963932612741872525_" cx="163.3436" cy="63.8281" r="45.4775" gradientTransform="matrix(-0.9865 0 0 0.989 286.5013 2.7701)" gradientUnits="userSpaceOnUse">
				<stop  offset="0" style="stop-color:#FF01FB"/>
				<stop  offset="1" style="stop-color:#B000FF"/>
			</radialGradient>
			<ellipse fill="url(#SVGID_00000145038507373527780600000017963932612741872525_)" cx="125.4" cy="65.9" rx="44.9" ry="45"/>
		</g>
	</g>
</g>
</svg>
